<svg width="58" height="58" viewBox="0 0 58 58" fill="none" xmlns="http://www.w3.org/2000/svg">
<path d="M46.5935 38.2117H15.8268L9.91016 14.545H52.5102L46.5935 38.2117Z" fill="#FAEB30"/>
<path d="M3.99414 7.44507H8.13581L9.91081 14.5451M9.91081 14.5451L15.8275 38.2117H46.5941L52.5108 14.5451H9.91081Z" stroke="#FAEB30" stroke-width="1.6" stroke-linecap="round" stroke-linejoin="round"/>
<path d="M15.8273 50.0451C17.788 50.0451 19.3773 48.4557 19.3773 46.4951C19.3773 44.5345 17.788 42.9451 15.8273 42.9451C13.8667 42.9451 12.2773 44.5345 12.2773 46.4951C12.2773 48.4557 13.8667 50.0451 15.8273 50.0451Z" stroke="#FAEB30" stroke-width="1.6" stroke-linecap="round" stroke-linejoin="round"/>
<path d="M46.5949 50.0451C48.5555 50.0451 50.1449 48.4557 50.1449 46.4951C50.1449 44.5345 48.5555 42.9451 46.5949 42.9451C44.6343 42.9451 43.0449 44.5345 43.0449 46.4951C43.0449 48.4557 44.6343 50.0451 46.5949 50.0451Z" stroke="#FAEB30" stroke-width="1.6" stroke-linecap="round" stroke-linejoin="round"/>
</svg>
